<?xml version="1.0" encoding="iso-8859-1"?>
<!-- Uploaded to: SVG Repo, www.svgrepo.com, Generator: SVG Repo Mixer Tools -->
<svg fill="#000000" height="800px" width="800px" version="1.1" id="Layer_1" xmlns="http://www.w3.org/2000/svg" xmlns:xlink="http://www.w3.org/1999/xlink" 
	 viewBox="0 0 512 512" xml:space="preserve">
<g>
	<g>
		<path d="M202.4,200.679v59.853h-0.003c0,5.461-0.162,10.15-0.482,13.938c-0.312,3.681-0.988,6.715-2.008,9.014
			c-0.974,2.193-2.331,3.723-4.147,4.679c-1.864,0.982-4.399,1.48-7.535,1.48c-2.184,0-4.311-0.21-6.325-0.624
			c-2.05-0.418-3.885-0.897-5.456-1.422c-1.567-0.521-2.877-1.044-3.895-1.556c-1.352-0.674-1.815-0.95-1.971-1.055l-1.466-0.987
			l-7.314,28.369l0.719,0.495c7.103,4.886,15.752,7.363,25.709,7.363c10.623,0,19.235-1.457,25.596-4.332
			c6.419-2.902,11.379-7.046,14.743-12.317c3.331-5.219,5.523-11.587,6.516-18.929c0.977-7.215,1.472-15.329,1.472-24.114v-59.853
			H202.4z"/>
	</g>
</g>
<g>
	<g>
		<path d="M343.597,267.669c-1.691-3.937-4.15-7.338-7.309-10.106c-3.111-2.72-6.899-5.108-11.263-7.096
			c-4.302-1.959-9.187-3.781-14.502-5.41c-3.372-1.086-6.416-2.019-9.05-2.772c-2.576-0.733-4.788-1.506-6.576-2.295
			c-1.69-0.746-2.982-1.56-3.841-2.419c-0.737-0.737-1.095-1.67-1.095-2.851c0-1.585,0.584-2.625,1.841-3.273
			c1.49-0.769,3.564-1.16,6.164-1.16c3.318,0,6.771,0.554,10.261,1.647c3.564,1.119,6.823,2.33,9.693,3.605
			c3.412,1.494,6.751,3.217,9.924,5.121l1.136,0.682l14.838-28.438l-1.136-0.568c-2.6-1.3-5.566-2.7-8.813-4.162
			c-3.262-1.469-6.826-2.85-10.588-4.105c-3.773-1.256-7.727-2.308-11.755-3.123c-4.068-0.824-8.302-1.243-12.585-1.243
			c-5.841,0-11.46,0.868-16.702,2.578c-5.269,1.721-10.018,4.278-14.117,7.604c-4.132,3.349-7.441,7.591-9.838,12.608
			c-2.396,5.014-3.613,10.876-3.613,17.422c0,4.342,0.598,8.249,1.775,11.614c1.191,3.402,3.056,6.472,5.542,9.126
			c2.459,2.629,5.623,5.005,9.406,7.062c3.72,2.028,8.211,3.941,13.342,5.686c3.458,1.191,6.786,2.237,9.89,3.106
			c3.051,0.859,5.779,1.723,8.107,2.569c2.235,0.815,3.994,1.752,5.226,2.785c1.066,0.897,1.585,1.938,1.585,3.184
			c0,1.1-0.471,1.933-1.484,2.62c-0.78,0.531-2.546,1.164-6.522,1.164c-4.403,0-8.79-0.638-13.037-1.897
			c-4.302-1.275-8.203-2.727-11.616-4.326c-4.039-1.806-7.973-3.907-11.695-6.249l-1.174-0.738l-14.756,30.041l0.992,0.589
			c3.497,2.078,7.352,3.964,11.456,5.605c4.087,1.636,8.396,3.072,12.799,4.267c4.399,1.196,8.901,2.135,13.378,2.79
			c4.474,0.654,8.905,0.988,13.168,0.988c5.367,0,10.789-0.639,16.115-1.901c5.372-1.273,10.262-3.382,14.535-6.269
			c4.313-2.912,7.834-6.857,10.466-11.724c2.63-4.873,3.965-10.944,3.965-18.045C346.133,276.406,345.279,271.599,343.597,267.669z"
			/>
	</g>
</g>
<g>
	<g>
		<path d="M256,0C114.842,0,0,114.84,0,256s114.842,256,256,256s256-114.84,256-256S397.158,0,256,0z M256,474.537
			c-120.501,0-218.537-98.036-218.537-218.537S135.499,37.463,256,37.463S474.537,135.499,474.537,256S376.501,474.537,256,474.537z
			"/>
	</g>
</g>
</svg>